<svg width="1265" height="1201" viewBox="0 0 1265 1201" fill="none" xmlns="http://www.w3.org/2000/svg">
<rect width="1265" height="1201" fill="#F5F5F5"/>
<rect width="1265" height="1201" fill="white"/>
<circle cx="633" cy="600" r="542" fill="#FFD715"/>
<rect x="681.593" y="721.725" width="373.793" height="89.3853" rx="44.6926" transform="rotate(-180 681.593 721.725)" fill="black"/>
<rect x="681.593" y="573.84" width="373.793" height="89.3853" rx="44.6926" transform="rotate(-180 681.593 573.84)" fill="black"/>
<path d="M654.395 931.376C854.519 931.376 975.748 807.627 975.748 602.447C975.748 397.908 854.519 274.8 656.32 274.8H443.239C431.266 274.8 421.559 284.506 421.559 296.48V909.696C421.559 921.669 431.266 931.376 443.239 931.376H654.395ZM571.267 812.435C565.28 812.435 560.427 807.582 560.427 801.595V404.58C560.427 398.594 565.28 393.74 571.267 393.74H648.943C772.096 393.74 837.201 456.577 837.201 602.447C837.201 748.958 772.096 812.435 648.623 812.435H571.267Z" fill="black"/>
</svg>
